@startuml
set namespaceSeparator ?
hide circle
hide class fields

package IG #DDDDDD{

     package Profiles #DDDDDD{

        class Auteur{

             Auteur => [1..None]
             Auteur.roleFonctionnel => [0..1]
             Auteur.horodatageParticipation => [1..1]
             Auteur.auteur[x] => [1..1]
        } 

        class Consentement{

             Consentement => [None..None]
             Consentement.identifiantConsentement => [0..*]
             Consentement.typeConsentement => [1..1]
             Consentement.statutConsentement => [1..1]
        } 

        class DestinatairePrevu{

             DestinatairePrevu => [None..None]
             DestinatairePrevu.Destinataire => [0..*]
        } 

        class DocumentDeReference{

             DocumentDeReference => [None..1]
             DocumentDeReference.typeReference => [1..1]
             DocumentDeReference.identifiantUniqueDocument => [1..1]
        } 

        class EnteteDocument{

             EnteteDocument => [1..1]
             EnteteDocument.identifiantUniqueDocument => [1..1]
             EnteteDocument.modeleDocument => [1..1]
             EnteteDocument.typeDocument => [1..1]
             EnteteDocument.titreDocument => [1..1]
             EnteteDocument.dateDeCreationDocument => [1..1]
             EnteteDocument.niveauConfidentialiteDocument => [1..1]
             EnteteDocument.languePrincipaleDocument => [1..1]
             EnteteDocument.identifiantLotDeVersionsDocument => [1..1]
             EnteteDocument.versionDocument => [1..1]
             EnteteDocument.statutDocument => [1..1]
             EnteteDocument.patient => [1..1]
             EnteteDocument.auteur => [1..*]
             EnteteDocument.operateurSaisie => [0..1]
             EnteteDocument.informateur => [0..*]
             EnteteDocument.structureConservation => [1..1]
             EnteteDocument.destinataire => [0..*]
             EnteteDocument.responsable => [1..1]
             EnteteDocument.validateur => [0..*]
             EnteteDocument.participant => [0..*]
             EnteteDocument.prescription => [0..*]
             EnteteDocument.evenement => [1..*]
             EnteteDocument.documentDeReference => [0..1]
             EnteteDocument.consentementAssocie => [0..*]
             EnteteDocument.priseEncharge => [1..1]
        } 

        class Evenement{

             Evenement => [1..None]
             Evenement.identifiantEvenement => [0..*]
             Evenement.codeEvenement => [0..1]
             Evenement.codeEvenement.id => [None..0]
             Evenement.codeEvenement.extension => [None..0]
             Evenement.codeEvenement.translation => [0..*]
             Evenement.dateHeureEvenement => [0..1]
             Evenement.executantEvenement => [0..1]
             Evenement.executantEvenement.roleFonctionnel => [0..1]
             Evenement.executantEvenement.dateHeureParticipation => [0..1]
             Evenement.executantEvenement.executant => [1..1]
        } 

        class Informateur{

             Informateur => [None..None]
             Informateur.informateur => [1..1]
        } 

        class OperateurSaisie{

             OperateurSaisie => [None..1]
             OperateurSaisie.dateSaisie => [1..1]
             OperateurSaisie.operateurSaisie => [1..1]
        } 

        class Participant{

             Participant => [None..None]
             Participant.typeParticipation => [1..1]
             Participant.roleFonctionnel => [0..1]
             Participant.dateDebutEtOuFinParticipation => [1..1]
             Participant.participant => [1..1]
        } 

        class Patient{

             Patient => [1..1]
             Patient.identifiantPatient => [1..*]
             Patient.adresse => [0..*]
             Patient.coordonneesTelecom => [0..*]
             Patient.personnePhysique => [1..1]
             Patient.personnePhysique.nomsPrenomsPatient => [1..1]
             Patient.personnePhysique.nomsPrenomsPatient.nom => [1..*]
             Patient.personnePhysique.nomsPrenomsPatient.nom.nomNaissance => [0..1]
             Patient.personnePhysique.nomsPrenomsPatient.nom.nomUtilise => [0..1]
             Patient.personnePhysique.nomsPrenomsPatient.prenom => [1..*]
             Patient.personnePhysique.nomsPrenomsPatient.prenom.listePrenoms => [0..1]
             Patient.personnePhysique.nomsPrenomsPatient.prenom.premierPrenom => [0..1]
             Patient.personnePhysique.nomsPrenomsPatient.prenom.prenomUtilise => [0..1]
             Patient.personnePhysique.sexe => [1..1]
             Patient.personnePhysique.dateNaissance => [1..1]
             Patient.personnePhysique.indicateurDeces => [0..1]
             Patient.personnePhysique.dateDeces => [0..1]
             Patient.personnePhysique.grossesseMultiple => [0..1]
             Patient.personnePhysique.numeroOrdreNaissance => [0..1]
             Patient.personnePhysique.representantPatient => [0..*]
             Patient.personnePhysique.representantPatient.adresse => [0..*]
             Patient.personnePhysique.representantPatient.coordonneesTelecom => [0..*]
             Patient.personnePhysique.representantPatient.personneRepresentantPatient => [0..1]
             Patient.personnePhysique.representantPatient.personneRepresentantPatient.nomsPrenomsRepresentantPatient => [1..1]
             Patient.personnePhysique.representantPatient.personneRepresentantPatient.nomsPrenomsRepresentantPatient.nom => [1..3]
             Patient.personnePhysique.representantPatient.personneRepresentantPatient.nomsPrenomsRepresentantPatient.prenom => [0..*]
             Patient.personnePhysique.representantPatient.structureRepresentantPatient => [0..1]
             Patient.personnePhysique.representantPatient.structureRepresentantPatient.identifiant => [0..1]
             Patient.personnePhysique.representantPatient.structureRepresentantPatient.nom => [0..1]
             Patient.personnePhysique.lieuNaissance => [0..1]
             Patient.personnePhysique.lieuNaissance.nomLieuNaissance => [0..1]
             Patient.personnePhysique.lieuNaissance.adresseLieuNaissance => [0..1]
             Patient.personnePhysique.lieuNaissance.CodeOfficielGeographiqueLieuNaissance => [0..1]
        } 

        class PersonneStructure{

             PersonneStructure => [None..None]
             PersonneStructure.personne => [0..1]
             PersonneStructure.personne.identifiantPersonne => [0..1]
             PersonneStructure.personne.professionRole => [0..1]
             PersonneStructure.personne.lien => [0..1]
             PersonneStructure.personne.adresse => [0..*]
             PersonneStructure.personne.coordonneesTelecom => [0..*]
             PersonneStructure.personne.IdentitePersonne => [0..1]
             PersonneStructure.personne.IdentitePersonne.nomPersonne => [1..*]
             PersonneStructure.personne.IdentitePersonne.prenomPersonne => [0..*]
             PersonneStructure.personne.IdentitePersonne.civilite => [0..1]
             PersonneStructure.personne.IdentitePersonne.titre => [0..1]
             PersonneStructure.structure => [0..1]
             PersonneStructure.structure.identifiantStructure => [0..1]
             PersonneStructure.structure.nomStructure => [0..1]
             PersonneStructure.structure.adresse => [0..*]
             PersonneStructure.structure.coordonneesTelecom => [0..*]
             PersonneStructure.structure.cadreExercice => [0..1]
        } 

        class PersonneStructureAuteur{

             PersonneStructureAuteur => [None..None]
             PersonneStructureAuteur.personne => [0..1]
             PersonneStructureAuteur.personne.identifiantPersonne => [1..*]
             PersonneStructureAuteur.personne.professionRole => [0..1]
             PersonneStructureAuteur.personne.adresse => [0..*]
             PersonneStructureAuteur.personne.coordonneesTelecom => [0..*]
             PersonneStructureAuteur.personne.IdentitePersonne => [1..1]
             PersonneStructureAuteur.personne.IdentitePersonne.nomPersonne => [1..*]
             PersonneStructureAuteur.personne.IdentitePersonne.prenomPersonne => [0..*]
             PersonneStructureAuteur.personne.IdentitePersonne.civilite => [0..1]
             PersonneStructureAuteur.personne.IdentitePersonne.titre => [0..1]
             PersonneStructureAuteur.structure => [0..1]
             PersonneStructureAuteur.structure.identifiantStructure => [0..1]
             PersonneStructureAuteur.structure.nomStructure => [0..1]
             PersonneStructureAuteur.structure.adresse => [0..*]
             PersonneStructureAuteur.structure.coordonneesTelecom => [0..*]
             PersonneStructureAuteur.structure.secteurActivite => [0..1]
        } 

        class Prescription{

             Prescription => [None..None]
             Prescription.identifiantPrescription => [1..1]
             Prescription.accessionNumber => [0..1]
        } 

        class PriseEncharge{

             PriseEncharge => [1..1]
             PriseEncharge.identifiantPriseEnCharge => [0..*]
             PriseEncharge.typePriseEnCharge => [0..1]
             PriseEncharge.dateDebutFinPriseEnCharge => [1..1]
             PriseEncharge.typeSortie => [0..1]
             PriseEncharge.responsablePriseEnCharge => [0..1]
             PriseEncharge.personneImpliqueePriseEnCharge => [0..*]
             PriseEncharge.personneImpliqueePriseEnCharge.typeParticipation => [1..1]
             PriseEncharge.personneImpliqueePriseEnCharge.dateDebutFinParticipation => [0..1]
             PriseEncharge.personneImpliqueePriseEnCharge.professionnelImplique => [1..1]
             PriseEncharge.lieuPriseEnCharge => [1..1]
             PriseEncharge.lieuPriseEnCharge.structure => [0..1]
             PriseEncharge.lieuPriseEnCharge.structure.identifiantStructure => [0..1]
             PriseEncharge.lieuPriseEnCharge.structure.nomStructure => [0..1]
             PriseEncharge.lieuPriseEnCharge.structure.adresse => [0..1]
             PriseEncharge.lieuPriseEnCharge.structure.coordonneesTelecom => [0..*]
             PriseEncharge.lieuPriseEnCharge.structure.secteurActivite => [0..1]
             PriseEncharge.lieuPriseEnCharge.structure.typeStructure => [0..1]
        } 

        class Responsable{

             Responsable => [1..1]
             Responsable.dateHeureAttestationValidite => [1..1]
             Responsable.Responsable => [1..1]
        } 

        class StructureConservation{

             StructureConservation => [1..1]
             StructureConservation.structure => [1..1]
             StructureConservation.structure.identifiantStructure => [1..1]
             StructureConservation.structure.nomStructure => [0..1]
             StructureConservation.structure.coordonneesTelecom => [0..1]
             StructureConservation.structure.adresse => [0..1]
        } 

        class SystemeStructureAuteur{

             SystemeStructureAuteur => [None..None]
             SystemeStructureAuteur.systeme => [1..1]
             SystemeStructureAuteur.systeme.identifiantSysteme => [1..*]
             SystemeStructureAuteur.systeme.typeSysteme => [1..1]
             SystemeStructureAuteur.systeme.nomModeleSysteme => [1..1]
             SystemeStructureAuteur.systeme.nomSysteme => [1..1]
             SystemeStructureAuteur.structure => [1..1]
             SystemeStructureAuteur.structure.identifiantStructure => [1..1]
             SystemeStructureAuteur.structure.nomStructure => [1..1]
             SystemeStructureAuteur.structure.adresse => [0..*]
             SystemeStructureAuteur.structure.coordonneesTelecom => [0..*]
             SystemeStructureAuteur.structure.secteurActivite => [0..1]
        } 

        class Validateur{

             Validateur => [None..None]
             Validateur.dateHeureAttestationValidite => [1..1]
             Validateur.Validateur => [1..1]
        } 

        class FrAssignedAuthor{

             AssignedAuthor => [None..None]
             AssignedAuthor.nullFlavor => [None..0]
             AssignedAuthor.typeId.nullFlavor => [None..0]
             AssignedAuthor.typeId.assigningAuthorityName => [None..0]
             AssignedAuthor.typeId.displayable => [None..0]
             AssignedAuthor.classCode => [None..0]
             AssignedAuthor.id => [None..None]
             AssignedAuthor.id.nullFlavor => [None..0]
             AssignedAuthor.id.assigningAuthorityName => [None..0]
             AssignedAuthor.id.displayable => [None..0]
             AssignedAuthor.id.root => [1..None]
             AssignedAuthor.id.extension => [1..None]
             AssignedAuthor.sdtcIdentifiedBy => [None..0]
             AssignedAuthor.code => [None..None]
             AssignedAuthor.addr => [None..None]
             AssignedAuthor.telecom => [None..None]
             AssignedAuthor.assignedPerson => [None..None]
             AssignedAuthor.assignedAuthoringDevice => [None..None]
             AssignedAuthor.representedOrganization => [None..None]
        } 

        class FrAssignedCustodian{

             AssignedCustodian => [None..None]
             AssignedCustodian.typeId.nullFlavor => [None..0]
             AssignedCustodian.typeId.assigningAuthorityName => [None..0]
             AssignedCustodian.typeId.displayable => [None..0]
             AssignedCustodian.classCode => [None..0]
             AssignedCustodian.representedCustodianOrganization => [None..None]
        } 

        class FrAssignedEntity{

             AssignedEntity => [None..None]
             AssignedEntity.nullFlavor => [None..0]
             AssignedEntity.typeId.nullFlavor => [None..0]
             AssignedEntity.typeId.assigningAuthorityName => [None..0]
             AssignedEntity.typeId.displayable => [None..0]
             AssignedEntity.classCode => [None..0]
             AssignedEntity.id => [None..1]
             AssignedEntity.id.nullFlavor => [None..0]
             AssignedEntity.id.assigningAuthorityName => [None..0]
             AssignedEntity.id.displayable => [None..0]
             AssignedEntity.id.root => [1..None]
             AssignedEntity.id.extension => [1..None]
             AssignedEntity.sdtcIdentifiedBy => [None..0]
             AssignedEntity.code => [None..None]
             AssignedEntity.code.nullFlavor => [None..0]
             AssignedEntity.code.codeSystemVersion => [None..0]
             AssignedEntity.code.sdtcValueSet => [None..0]
             AssignedEntity.code.sdtcValueSetVersion => [None..0]
             AssignedEntity.addr => [None..None]
             AssignedEntity.telecom => [None..None]
             AssignedEntity.assignedPerson => [None..None]
             AssignedEntity.representedOrganization => [None..None]
             AssignedEntity.sdtcPatient => [None..0]
        } 

        class FrAssociatedEntity{

             AssociatedEntity => [None..None]
             AssociatedEntity.nullFlavor => [None..0]
             AssociatedEntity.typeId.nullFlavor => [None..0]
             AssociatedEntity.typeId.assigningAuthorityName => [None..0]
             AssociatedEntity.typeId.displayable => [None..0]
             AssociatedEntity.classCode => [None..None]
             AssociatedEntity.id => [None..None]
             AssociatedEntity.id.root => [None..None]
             AssociatedEntity.id.extension => [None..None]
             AssociatedEntity.sdtcIdentifiedBy => [None..0]
             AssociatedEntity.code => [None..None]
             AssociatedEntity.addr => [None..None]
             AssociatedEntity.telecom => [None..None]
             AssociatedEntity.associatedPerson => [None..None]
             AssociatedEntity.scopingOrganization => [None..None]
        } 

        class FrAuthenticator{

             Authenticator => [None..None]
             Authenticator.nullFlavor => [None..0]
             Authenticator.typeId.nullFlavor => [None..0]
             Authenticator.typeId.assigningAuthorityName => [None..0]
             Authenticator.typeId.displayable => [None..0]
             Authenticator.typeCode => [None..0]
             Authenticator.time => [None..None]
             Authenticator.time.value => [None..None]
             Authenticator.signatureCode => [None..None]
             Authenticator.signatureCode.sdtcValueSet => [None..0]
             Authenticator.signatureCode.sdtcValueSetVersion => [None..0]
             Authenticator.sdtcSignatureText => [None..0]
             Authenticator.assignedEntity => [None..None]
        } 

        class FrAuthor{

             Author => [None..None]
             Author.nullFlavor => [None..0]
             Author.typeId.nullFlavor => [None..0]
             Author.typeId.assigningAuthorityName => [None..0]
             Author.typeId.displayable => [None..0]
             Author.typeCode => [None..0]
             Author.contextControlCode => [None..0]
             Author.functionCode => [None..None]
             Author.functionCode.nullFlavor => [None..0]
             Author.functionCode.code => [1..None]
             Author.functionCode.codeSystem => [1..None]
             Author.functionCode.codeSystemVersion => [None..0]
             Author.functionCode.sdtcValueSet => [None..0]
             Author.functionCode.sdtcValueSetVersion => [None..0]
             Author.functionCode.originalText => [None..None]
             Author.time => [None..None]
             Author.time.value => [1..None]
             Author.assignedAuthor => [None..None]
        } 

        class FrAuthoringDevice{

             AuthoringDevice.typeId.nullFlavor => [None..0]
             AuthoringDevice.typeId.assigningAuthorityName => [None..0]
             AuthoringDevice.typeId.displayable => [None..0]
             AuthoringDevice.classCode => [None..0]
             AuthoringDevice.determinerCode => [None..0]
             AuthoringDevice.manufacturerModelName => [1..None]
             AuthoringDevice.softwareName => [1..None]
        } 

        class FrAuthorization{

             Authorization => [None..None]
             Authorization.typeId.nullFlavor => [None..0]
             Authorization.typeId.assigningAuthorityName => [None..0]
             Authorization.typeId.displayable => [None..0]
             Authorization.typeCode => [None..0]
             Authorization.consent => [None..None]
             Authorization.consent.id => [None..None]
             Authorization.consent.code => [1..None]
             Authorization.consent.statusCode.code => [None..None]
             Authorization.consent.statusCode.sdtcValueSet => [None..0]
             Authorization.consent.statusCode.sdtcValueSetVersion => [None..0]
        } 

        class FrClinicalDocument{

             ClinicalDocument => [None..None]
             ClinicalDocument.realmCode => [1..1]
             ClinicalDocument.typeId => [1..None]
             ClinicalDocument.templateId => [3..None]
             ClinicalDocument.id => [None..None]
             ClinicalDocument.code => [None..None]
             ClinicalDocument.title => [1..None]
             ClinicalDocument.effectiveTime => [None..None]
             ClinicalDocument.confidentialityCode => [None..None]
             ClinicalDocument.languageCode => [1..None]
             ClinicalDocument.setId => [1..None]
             ClinicalDocument.versionNumber => [1..None]
             ClinicalDocument.copyTime => [None..0]
             ClinicalDocument.recordTarget => [None..1]
             ClinicalDocument.author => [None..None]
             ClinicalDocument.dataEnterer => [None..None]
             ClinicalDocument.informant => [None..None]
             ClinicalDocument.custodian => [None..None]
             ClinicalDocument.informationRecipient => [None..None]
             ClinicalDocument.legalAuthenticator => [1..None]
             ClinicalDocument.authenticator => [None..None]
             ClinicalDocument.participant => [None..None]
             ClinicalDocument.inFulfillmentOf => [None..None]
             ClinicalDocument.documentationOf => [1..None]
             ClinicalDocument.relatedDocument => [None..1]
             ClinicalDocument.authorization => [None..None]
             ClinicalDocument.componentOf => [1..None]
        } 

        class FrComponentOf{

             ComponentOf => [None..None]
             ComponentOf.nullFlavor => [None..0]
             ComponentOf.typeId.nullFlavor => [None..0]
             ComponentOf.typeId.assigningAuthorityName => [None..0]
             ComponentOf.typeId.displayable => [None..0]
             ComponentOf.typeCode => [None..0]
             ComponentOf.encompassingEncounter => [None..None]
        } 

        class FrCustodian{

             Custodian.nullFlavor => [None..0]
             Custodian.typeId.nullFlavor => [None..0]
             Custodian.typeId.assigningAuthorityName => [None..0]
             Custodian.typeId.displayable => [None..0]
             Custodian.typeCode => [None..0]
             Custodian.assignedCustodian => [None..None]
        } 

        class FrDataEnterer{

             DataEnterer.nullFlavor => [None..0]
             DataEnterer.typeId.nullFlavor => [None..0]
             DataEnterer.typeId.assigningAuthorityName => [None..0]
             DataEnterer.typeId.displayable => [None..0]
             DataEnterer.typeCode => [None..0]
             DataEnterer.contextControlCode => [None..0]
             DataEnterer.time => [1..None]
             DataEnterer.time.value => [None..None]
             DataEnterer.assignedEntity => [None..None]
        } 

        class FrDocumentationOf{

             DocumentationOf.nullFlavor => [None..0]
             DocumentationOf.typeId.nullFlavor => [None..0]
             DocumentationOf.typeId.assigningAuthorityName => [None..0]
             DocumentationOf.typeId.displayable => [None..0]
             DocumentationOf.typeCode => [None..0]
             DocumentationOf.serviceEvent => [None..None]
        } 

        class FrEncompassingEncounter{

             EncompassingEncounter.typeId.nullFlavor => [None..0]
             EncompassingEncounter.typeId.assigningAuthorityName => [None..0]
             EncompassingEncounter.typeId.displayable => [None..0]
             EncompassingEncounter.classCode => [None..0]
             EncompassingEncounter.moodCode => [None..0]
             EncompassingEncounter.id => [None..None]
             EncompassingEncounter.code => [None..None]
             EncompassingEncounter.code.nullFlavor => [None..0]
             EncompassingEncounter.code.codeSystem => [1..None]
             EncompassingEncounter.code.codeSystemVersion => [None..0]
             EncompassingEncounter.code.displayName => [1..None]
             EncompassingEncounter.code.sdtcValueSet => [None..0]
             EncompassingEncounter.code.sdtcValueSetVersion => [None..0]
             EncompassingEncounter.effectiveTime => [None..None]
             EncompassingEncounter.sdtcAdmissionReferralSourceCode => [None..0]
             EncompassingEncounter.dischargeDispositionCode => [None..None]
             EncompassingEncounter.responsibleParty => [None..None]
             EncompassingEncounter.responsibleParty.nullFlavor => [None..0]
             EncompassingEncounter.responsibleParty.typeId.nullFlavor => [None..0]
             EncompassingEncounter.responsibleParty.typeId.assigningAuthorityName => [None..0]
             EncompassingEncounter.responsibleParty.typeId.displayable => [None..0]
             EncompassingEncounter.encounterParticipant => [None..None]
             EncompassingEncounter.location => [1..None]
             EncompassingEncounter.location.nullFlavor => [None..0]
             EncompassingEncounter.location.typeId.nullFlavor => [None..0]
             EncompassingEncounter.location.typeId.assigningAuthorityName => [None..0]
             EncompassingEncounter.location.typeId.displayable => [None..0]
             EncompassingEncounter.location.typeCode => [None..0]
             EncompassingEncounter.location.healthCareFacility => [None..None]
        } 

        class FrEncounterParticipant{

             EncounterParticipant.typeId.nullFlavor => [None..0]
             EncounterParticipant.typeId.assigningAuthorityName => [None..0]
             EncounterParticipant.typeId.displayable => [None..0]
             EncounterParticipant.typeCode => [None..None]
             EncounterParticipant.time => [None..None]
             EncounterParticipant.assignedEntity => [1..None]
        } 

        class FrHealthCareFacility{

             HealthCareFacility.nullFlavor => [None..0]
             HealthCareFacility.typeId.nullFlavor => [None..0]
             HealthCareFacility.typeId.assigningAuthorityName => [None..0]
             HealthCareFacility.typeId.displayable => [None..0]
             HealthCareFacility.classCode => [None..0]
             HealthCareFacility.id => [None..0]
             HealthCareFacility.sdtcIdentifiedBy => [None..0]
             HealthCareFacility.code => [1..None]
             HealthCareFacility.code.nullFlavor => [None..0]
             HealthCareFacility.code.code => [1..None]
             HealthCareFacility.code.codeSystem => [1..None]
             HealthCareFacility.code.codeSystemVersion => [None..0]
             HealthCareFacility.code.displayName => [1..None]
             HealthCareFacility.code.sdtcValueSet => [None..0]
             HealthCareFacility.code.sdtcValueSetVersion => [None..0]
             HealthCareFacility.code.translation => [None..1]
             HealthCareFacility.code.translation.nullFlavor => [None..0]
             HealthCareFacility.code.translation.code => [1..None]
             HealthCareFacility.code.translation.codeSystem => [1..None]
             HealthCareFacility.code.translation.codeSystemVersion => [None..0]
             HealthCareFacility.code.translation.displayName => [1..None]
             HealthCareFacility.code.translation.sdtcValueSet => [None..0]
             HealthCareFacility.code.translation.sdtcValueSetVersion => [None..0]
             HealthCareFacility.location => [None..None]
        } 

        class FrInFulfillmentOf{

             InFulfillmentOf.typeId.nullFlavor => [None..0]
             InFulfillmentOf.typeId.assigningAuthorityName => [None..0]
             InFulfillmentOf.typeId.displayable => [None..0]
             InFulfillmentOf.typeCode => [None..0]
             InFulfillmentOf.order => [None..None]
        } 

        class FrInformant{

             Informant.nullFlavor => [None..0]
             Informant.typeId.nullFlavor => [None..0]
             Informant.typeId.assigningAuthorityName => [None..0]
             Informant.typeId.displayable => [None..0]
             Informant.typeCode => [None..0]
             Informant.contextControlCode => [None..0]
             Informant.assignedEntity => [None..None]
             Informant.relatedEntity => [None..None]
        } 

        class FrInformationRecipient{

             InformationRecipient.nullFlavor => [None..0]
             InformationRecipient.typeId.nullFlavor => [None..0]
             InformationRecipient.typeId.assigningAuthorityName => [None..0]
             InformationRecipient.typeId.displayable => [None..0]
             InformationRecipient.typeCode => [None..0]
             InformationRecipient.intendedRecipient => [None..None]
        } 

        class FrIntendedRecipient{

             IntendedRecipient.typeId.nullFlavor => [None..0]
             IntendedRecipient.typeId.assigningAuthorityName => [None..0]
             IntendedRecipient.typeId.displayable => [None..0]
             IntendedRecipient.classCode => [None..0]
             IntendedRecipient.id => [None..None]
             IntendedRecipient.id.assigningAuthorityName => [None..0]
             IntendedRecipient.id.displayable => [None..0]
             IntendedRecipient.id.root => [1..None]
             IntendedRecipient.id.extension => [1..None]
             IntendedRecipient.addr => [None..None]
             IntendedRecipient.telecom => [None..None]
             IntendedRecipient.informationRecipient => [None..None]
             IntendedRecipient.receivedOrganization => [None..None]
             IntendedRecipient.receivedOrganization.id.assigningAuthorityName => [None..0]
             IntendedRecipient.receivedOrganization.id.displayable => [None..0]
             IntendedRecipient.receivedOrganization.id.root => [None..None]
        } 

        class FrLegalAuthenticator{

             LegalAuthenticator.nullFlavor => [None..0]
             LegalAuthenticator.typeId.nullFlavor => [None..0]
             LegalAuthenticator.typeId.assigningAuthorityName => [None..0]
             LegalAuthenticator.typeId.displayable => [None..0]
             LegalAuthenticator.typeCode => [None..0]
             LegalAuthenticator.contextControlCode => [None..0]
             LegalAuthenticator.time => [None..None]
             LegalAuthenticator.time.value => [None..None]
             LegalAuthenticator.signatureCode => [None..None]
             LegalAuthenticator.signatureCode.sdtcValueSet => [None..0]
             LegalAuthenticator.signatureCode.sdtcValueSetVersion => [None..0]
             LegalAuthenticator.sdtcSignatureText => [None..0]
             LegalAuthenticator.assignedEntity => [None..None]
             LegalAuthenticator.assignedEntity.code => [None..None]
        } 

        class FrName{

             fr-core-name => [None..None]
             fr-core-name.nullFlavor => [None..0]
             fr-core-name.use => [None..0]
             fr-core-name.item.delimiter => [None..0]
             fr-core-name.item.xmlText => [None..0]
             fr-core-name.validTime => [None..0]
        } 

        class FrOrder{

             Order.nullFlavor => [None..0]
             Order.typeId.nullFlavor => [None..0]
             Order.typeId.assigningAuthorityName => [None..0]
             Order.typeId.displayable => [None..0]
             Order.classCode => [None..0]
             Order.moodCode => [None..0]
             Order.id => [None..None]
             Order.id.nullFlavor => [None..0]
             Order.id.assigningAuthorityName => [None..0]
             Order.id.displayable => [None..0]
             Order.id.root => [1..None]
             Order.id.extension => [None..None]
             Order.code => [None..0]
             Order.priorityCode => [None..0]
        } 

        class FrParentDocument{

             ParentDocument.nullFlavor => [None..0]
             ParentDocument.id => [None..1]
             ParentDocument.id.nullFlavor => [None..0]
             ParentDocument.id.assigningAuthorityName => [None..0]
             ParentDocument.id.displayable => [None..0]
             ParentDocument.id.root => [1..None]
             ParentDocument.id.extension => [None..None]
        } 

        class FrParticipant{

             Participant1.typeId.nullFlavor => [None..0]
             Participant1.typeId.assigningAuthorityName => [None..0]
             Participant1.typeId.displayable => [None..0]
             Participant1.typeCode => [None..None]
             Participant1.contextControlCode => [None..0]
             Participant1.functionCode => [None..None]
             Participant1.functionCode.nullFlavor => [None..0]
             Participant1.functionCode.code => [1..None]
             Participant1.functionCode.codeSystem => [1..None]
             Participant1.functionCode.codeSystemVersion => [None..0]
             Participant1.functionCode.sdtcValueSet => [None..0]
             Participant1.functionCode.sdtcValueSetVersion => [None..0]
             Participant1.functionCode.originalText => [None..None]
             Participant1.time => [1..None]
             Participant1.time.operator => [None..0]
             Participant1.time.low => [None..None]
             Participant1.time.center => [None..0]
             Participant1.time.width => [None..0]
             Participant1.time.high => [None..None]
             Participant1.associatedEntity => [None..None]
        } 

        class FrPatientRole{

             PatientRole.nullFlavor => [None..0]
             PatientRole.realmCode => [None..0]
             PatientRole.typeId => [None..0]
             PatientRole.templateId => [None..0]
             PatientRole.classCode => [None..0]
             PatientRole.id => [None..None]
             PatientRole.id.nullFlavor => [None..0]
             PatientRole.id.assigningAuthorityName => [None..0]
             PatientRole.id.displayable => [None..0]
             PatientRole.id.root => [1..None]
             PatientRole.id.extension => [None..None]
             PatientRole.sdtcIdentifiedBy => [None..0]
             PatientRole.addr => [None..None]
             PatientRole.telecom => [None..None]
             PatientRole.patient => [1..None]
             PatientRole.providerOrganization => [None..0]
        } 

        class FrPatient{

             Patient.nullFlavor => [None..0]
             Patient.typeId.nullFlavor => [None..0]
             Patient.typeId.assigningAuthorityName => [None..0]
             Patient.typeId.displayable => [None..0]
             Patient.determinerCode => [None..0]
             Patient.name => [1..1]
             Patient.name.nullFlavor => [None..0]
             Patient.administrativeGenderCode => [1..None]
             Patient.birthTime => [1..None]
             Patient.sdtcDeceasedInd => [None..None]
             Patient.sdtcDeceasedTime => [None..None]
             Patient.sdtcMultipleBirthInd => [None..None]
             Patient.sdtcMultipleBirthOrderNumber => [None..None]
             Patient.maritalStatusCode => [None..0]
             Patient.religiousAffiliationCode => [None..0]
             Patient.raceCode => [None..0]
             Patient.sdtcRaceCode => [None..0]
             Patient.ethnicGroupCode => [None..0]
             Patient.sdtcEthnicGroupCode => [None..0]
             Patient.guardian => [None..None]
             Patient.birthplace => [None..None]
             Patient.languageCommunication => [None..0]
        } 

        class FrPerformer{

             Performer1.typeId.nullFlavor => [None..0]
             Performer1.typeId.assigningAuthorityName => [None..0]
             Performer1.typeId.displayable => [None..0]
             Performer1.typeCode => [None..None]
             Performer1.functionCode => [None..None]
             Performer1.time => [None..None]
             Performer1.assignedEntity => [None..None]
             Performer1.assignedEntity.code => [None..None]
        } 

        class FrAssignedPerson{

             Person.nullFlavor => [None..0]
             Person.typeId.nullFlavor => [None..0]
             Person.typeId.assigningAuthorityName => [None..0]
             Person.typeId.displayable => [None..0]
             Person.classCode => [None..0]
             Person.determinerCode => [None..0]
             Person.name => [1..1]
             Person.name.item.family => [1..1]
             Person.name.item.given => [None..1]
             Person.name.item.prefix => [None..1]
             Person.name.item.suffix => [None..1]
             Person.sdtcDesc => [None..0]
             Person.sdtcAsPatientRelationship => [None..0]
        } 

        class FrRecordTarget{

             RecordTarget.nullFlavor => [None..0]
             RecordTarget.typeId.nullFlavor => [None..0]
             RecordTarget.typeId.assigningAuthorityName => [None..0]
             RecordTarget.typeId.displayable => [None..0]
             RecordTarget.typeCode => [None..0]
             RecordTarget.contextControlCode => [None..0]
             RecordTarget.patientRole => [None..None]
        } 

        class FrRelatedDocument{

             RelatedDocument.typeId.nullFlavor => [None..0]
             RelatedDocument.typeId.assigningAuthorityName => [None..0]
             RelatedDocument.typeId.displayable => [None..0]
             RelatedDocument.typeCode => [None..None]
             RelatedDocument.parentDocument => [None..None]
        } 

        class FrRelatedEntity{

             RelatedEntity.nullFlavor => [None..0]
             RelatedEntity.typeId.nullFlavor => [None..0]
             RelatedEntity.typeId.assigningAuthorityName => [None..0]
             RelatedEntity.typeId.displayable => [None..0]
             RelatedEntity.classCode => [None..None]
             RelatedEntity.code => [None..None]
             RelatedEntity.code.nullFlavor => [None..0]
             RelatedEntity.code.code => [1..None]
             RelatedEntity.code.codeSystem => [1..None]
             RelatedEntity.code.codeSystemVersion => [None..0]
             RelatedEntity.code.displayName => [1..None]
             RelatedEntity.code.sdtcValueSet => [None..0]
             RelatedEntity.code.sdtcValueSetVersion => [None..0]
             RelatedEntity.addr => [None..None]
             RelatedEntity.telecom => [1..None]
             RelatedEntity.relatedPerson => [1..None]
        } 

        class FrRepresentedCustodianOrganization{

             CustodianOrganization.typeId.nullFlavor => [None..0]
             CustodianOrganization.typeId.assigningAuthorityName => [None..0]
             CustodianOrganization.typeId.displayable => [None..0]
             CustodianOrganization.classCode => [None..0]
             CustodianOrganization.determinerCode => [None..0]
             CustodianOrganization.id => [None..1]
             CustodianOrganization.id.root => [None..None]
             CustodianOrganization.id.extension => [None..None]
             CustodianOrganization.name => [None..None]
             CustodianOrganization.telecom => [None..None]
             CustodianOrganization.sdtcTelecom => [None..0]
             CustodianOrganization.addr => [None..None]
        } 

        class FrRepresentedOrganization{

             Organization.typeId.nullFlavor => [None..0]
             Organization.typeId.assigningAuthorityName => [None..0]
             Organization.typeId.displayable => [None..0]
             Organization.classCode => [None..0]
             Organization.determinerCode => [None..0]
             Organization.id => [None..None]
             Organization.name => [None..None]
             Organization.telecom => [None..None]
             Organization.addr => [None..None]
             Organization.standardIndustryClassCode => [None..None]
             Organization.standardIndustryClassCode.nullFlavor => [None..0]
             Organization.standardIndustryClassCode.code => [None..None]
        } 

        class FrServiceEvent{

             ServiceEvent => [None..None]
             ServiceEvent.nullFlavor => [None..0]
             ServiceEvent.typeId.nullFlavor => [None..0]
             ServiceEvent.typeId.assigningAuthorityName => [None..0]
             ServiceEvent.typeId.displayable => [None..0]
             ServiceEvent.classCode => [None..0]
             ServiceEvent.moodCode => [None..0]
             ServiceEvent.id => [None..None]
             ServiceEvent.code => [None..None]
             ServiceEvent.code.nullFlavor => [None..0]
             ServiceEvent.code.code => [1..None]
             ServiceEvent.code.codeSystem => [1..None]
             ServiceEvent.code.codeSystemVersion => [None..0]
             ServiceEvent.code.displayName => [1..None]
             ServiceEvent.code.sdtcValueSet => [None..0]
             ServiceEvent.code.sdtcValueSetVersion => [None..0]
             ServiceEvent.code.translation => [None..None]
             ServiceEvent.code.translation.nullFlavor => [None..0]
             ServiceEvent.code.translation.codeSystemVersion => [None..0]
             ServiceEvent.code.translation.sdtcValueSet => [None..0]
             ServiceEvent.code.translation.sdtcValueSetVersion => [None..0]
             ServiceEvent.code.translation.qualifier => [None..None]
             ServiceEvent.effectiveTime => [None..None]
             ServiceEvent.effectiveTime.nullFlavor => [None..0]
             ServiceEvent.effectiveTime.operator => [None..0]
             ServiceEvent.effectiveTime.low => [1..None]
             ServiceEvent.effectiveTime.center => [None..0]
             ServiceEvent.effectiveTime.width => [None..0]
             ServiceEvent.effectiveTime.high => [None..None]
             ServiceEvent.performer => [None..1]
             ServiceEvent.performer.nullFlavor => [None..0]
             ServiceEvent.performer.typeCode => [None..None]
         }

     }
     package extension #paleturquoise {


         }
     }
     package valueset #PaleVioletRed{
       }

package "Ressources de base" #palegreen {

 class "Base" as  class095a1b43effec73955e31e790438de49 

    class095a1b43effec73955e31e790438de49 --> Auteur

 class "Base" as  class095a1b43effec73955e31e790438de49 

    class095a1b43effec73955e31e790438de49 --> Consentement

 class "Base" as  class095a1b43effec73955e31e790438de49 

    class095a1b43effec73955e31e790438de49 --> DestinatairePrevu

 class "Base" as  class095a1b43effec73955e31e790438de49 

    class095a1b43effec73955e31e790438de49 --> DocumentDeReference

 class "Base" as  class095a1b43effec73955e31e790438de49 

    class095a1b43effec73955e31e790438de49 --> EnteteDocument

 class "Base" as  class095a1b43effec73955e31e790438de49 

    class095a1b43effec73955e31e790438de49 --> Evenement

 class "Base" as  class095a1b43effec73955e31e790438de49 

    class095a1b43effec73955e31e790438de49 --> Informateur

 class "Base" as  class095a1b43effec73955e31e790438de49 

    class095a1b43effec73955e31e790438de49 --> OperateurSaisie

 class "Base" as  class095a1b43effec73955e31e790438de49 

    class095a1b43effec73955e31e790438de49 --> Participant

 class "Base" as  class095a1b43effec73955e31e790438de49 

    class095a1b43effec73955e31e790438de49 --> Patient

 class "Base" as  class095a1b43effec73955e31e790438de49 

    class095a1b43effec73955e31e790438de49 --> PersonneStructure

 class "Base" as  class095a1b43effec73955e31e790438de49 

    class095a1b43effec73955e31e790438de49 --> PersonneStructureAuteur

 class "Base" as  class095a1b43effec73955e31e790438de49 

    class095a1b43effec73955e31e790438de49 --> Prescription

 class "Base" as  class095a1b43effec73955e31e790438de49 

    class095a1b43effec73955e31e790438de49 --> PriseEncharge

 class "Base" as  class095a1b43effec73955e31e790438de49 

    class095a1b43effec73955e31e790438de49 --> Responsable

 class "Base" as  class095a1b43effec73955e31e790438de49 

    class095a1b43effec73955e31e790438de49 --> StructureConservation

 class "Base" as  class095a1b43effec73955e31e790438de49 

    class095a1b43effec73955e31e790438de49 --> SystemeStructureAuteur

 class "Base" as  class095a1b43effec73955e31e790438de49 

    class095a1b43effec73955e31e790438de49 --> Validateur

 class "http://hl7.org/cda/stds/core/StructureDefinition/AssignedAuthor" as  class58510d48686a6398080b7be0a9488a07 

    class58510d48686a6398080b7be0a9488a07 --> FrAssignedAuthor

 class "http://hl7.org/cda/stds/core/StructureDefinition/AssignedCustodian" as  class9d6ae0bd4aff182e6679539d1b5e57dd 

    class9d6ae0bd4aff182e6679539d1b5e57dd --> FrAssignedCustodian

 class "http://hl7.org/cda/stds/core/StructureDefinition/AssignedEntity" as  classa57c2cf8eee922b736f24aae263fb85a 

    classa57c2cf8eee922b736f24aae263fb85a --> FrAssignedEntity

 class "http://hl7.org/cda/stds/core/StructureDefinition/AssociatedEntity" as  classf02f59ca36afce3537fd13cedd8610bc 

    classf02f59ca36afce3537fd13cedd8610bc --> FrAssociatedEntity

 class "http://hl7.org/cda/stds/core/StructureDefinition/Authenticator" as  class53108c7e3b2a59607cdb20ab0b268d03 

    class53108c7e3b2a59607cdb20ab0b268d03 --> FrAuthenticator

 class "http://hl7.org/cda/stds/core/StructureDefinition/Author" as  class937cfe84638a385773bc82a876cf4a8d 

    class937cfe84638a385773bc82a876cf4a8d --> FrAuthor

 class "http://hl7.org/cda/stds/core/StructureDefinition/AuthoringDevice" as  classf46502fb30744212b0c5841a6e4ea035 

    classf46502fb30744212b0c5841a6e4ea035 --> FrAuthoringDevice

 class "http://hl7.org/cda/stds/core/StructureDefinition/Authorization" as  class598114d4c6d4bf797def36d247d40839 

    class598114d4c6d4bf797def36d247d40839 --> FrAuthorization

 class "http://hl7.org/cda/stds/core/StructureDefinition/ClinicalDocument" as  class989be5c5fb811e081805dc5a32645079 

    class989be5c5fb811e081805dc5a32645079 --> FrClinicalDocument

 class "http://hl7.org/cda/stds/core/StructureDefinition/ComponentOf" as  class4277423a305ecb24dc9d37288c280772 

    class4277423a305ecb24dc9d37288c280772 --> FrComponentOf

 class "http://hl7.org/cda/stds/core/StructureDefinition/Custodian" as  classd84e4a39bf094111de7518d5a5411c66 

    classd84e4a39bf094111de7518d5a5411c66 --> FrCustodian

 class "http://hl7.org/cda/stds/core/StructureDefinition/DataEnterer" as  class637494ebd710a0dd928d3bba66f7c36c 

    class637494ebd710a0dd928d3bba66f7c36c --> FrDataEnterer

 class "http://hl7.org/cda/stds/core/StructureDefinition/DocumentationOf" as  class0977267ea48347e7fb26a0e81e862268 

    class0977267ea48347e7fb26a0e81e862268 --> FrDocumentationOf

 class "http://hl7.org/cda/stds/core/StructureDefinition/EncompassingEncounter" as  class71895803bd5b89edafce351523a041e6 

    class71895803bd5b89edafce351523a041e6 --> FrEncompassingEncounter

 class "http://hl7.org/cda/stds/core/StructureDefinition/EncounterParticipant" as  class10428a590ddf9ce27b1fe90b22a362bd 

    class10428a590ddf9ce27b1fe90b22a362bd --> FrEncounterParticipant

 class "http://hl7.org/cda/stds/core/StructureDefinition/HealthCareFacility" as  class02cc646ca5601d63f73402bfbbfdc6eb 

    class02cc646ca5601d63f73402bfbbfdc6eb --> FrHealthCareFacility

 class "http://hl7.org/cda/stds/core/StructureDefinition/InFulfillmentOf" as  classe90f25fe105c3c9c4c47c62629a3765d 

    classe90f25fe105c3c9c4c47c62629a3765d --> FrInFulfillmentOf

 class "http://hl7.org/cda/stds/core/StructureDefinition/Informant" as  class0bdf5ad046cc54eb3cb2ac8f5bc2f2c8 

    class0bdf5ad046cc54eb3cb2ac8f5bc2f2c8 --> FrInformant

 class "http://hl7.org/cda/stds/core/StructureDefinition/InformationRecipient" as  classb6fd1ae4a9b50563c83e48eaaf673af4 

    classb6fd1ae4a9b50563c83e48eaaf673af4 --> FrInformationRecipient

 class "http://hl7.org/cda/stds/core/StructureDefinition/IntendedRecipient" as  classb4c0abb01d11eefbc617aa004a0b6393 

    classb4c0abb01d11eefbc617aa004a0b6393 --> FrIntendedRecipient

 class "http://hl7.org/cda/stds/core/StructureDefinition/LegalAuthenticator" as  class57f35676579cccc1659c4601fa19b43b 

    class57f35676579cccc1659c4601fa19b43b --> FrLegalAuthenticator

 class "http://hl7.org/cda/stds/core/StructureDefinition/PN" as  class91b9b68696e7cdd4a91365aa0d0d170c 

    class91b9b68696e7cdd4a91365aa0d0d170c --> FrName

 class "http://hl7.org/cda/stds/core/StructureDefinition/Order" as  class358c910e07ad3f95a61b1dae6d4a35be 

    class358c910e07ad3f95a61b1dae6d4a35be --> FrOrder

 class "http://hl7.org/cda/stds/core/StructureDefinition/ParentDocument" as  class4313f3b50ac00c5473aecb642b99f6e4 

    class4313f3b50ac00c5473aecb642b99f6e4 --> FrParentDocument

 class "http://hl7.org/cda/stds/core/StructureDefinition/Participant1" as  class2fd9a3b182710aa68f9e615904fe1537 

    class2fd9a3b182710aa68f9e615904fe1537 --> FrParticipant

 class "http://hl7.org/cda/stds/core/StructureDefinition/PatientRole" as  class1e213e8519f12110736b032cda341174 

    class1e213e8519f12110736b032cda341174 --> FrPatientRole

 class "http://hl7.org/cda/stds/core/StructureDefinition/Patient" as  classa8889bb6f3999fb5243b3ed3b492e0c4 

    classa8889bb6f3999fb5243b3ed3b492e0c4 --> FrPatient

 class "http://hl7.org/cda/stds/core/StructureDefinition/Performer1" as  class2322ea8c73e0b95c4de59f56ee36a694 

    class2322ea8c73e0b95c4de59f56ee36a694 --> FrPerformer

 class "http://hl7.org/cda/stds/core/StructureDefinition/Person" as  classb14b9f756425869ebeb8ade0004931e1 

    classb14b9f756425869ebeb8ade0004931e1 --> FrAssignedPerson

 class "http://hl7.org/cda/stds/core/StructureDefinition/RecordTarget" as  class0baedfe5573df35f7a6ee5934c45b818 

    class0baedfe5573df35f7a6ee5934c45b818 --> FrRecordTarget

 class "http://hl7.org/cda/stds/core/StructureDefinition/RelatedDocument" as  classddc7c43262268f3e7ef73c1c5ad6b514 

    classddc7c43262268f3e7ef73c1c5ad6b514 --> FrRelatedDocument

 class "http://hl7.org/cda/stds/core/StructureDefinition/RelatedEntity" as  class0a3bfa693dae125e5c0a4e8cab321d9a 

    class0a3bfa693dae125e5c0a4e8cab321d9a --> FrRelatedEntity

 class "http://hl7.org/cda/stds/core/StructureDefinition/CustodianOrganization" as  class958e4615d47e79ed7eef2368401c733a 

    class958e4615d47e79ed7eef2368401c733a --> FrRepresentedCustodianOrganization

 class "http://hl7.org/cda/stds/core/StructureDefinition/Organization" as  class70defb4802516f8b110654a1e3649ed7 

    class70defb4802516f8b110654a1e3649ed7 --> FrRepresentedOrganization

 class "http://hl7.org/cda/stds/core/StructureDefinition/ServiceEvent" as  class21fc45b6eacaebf264ceab7c3130a980 

    class21fc45b6eacaebf264ceab7c3130a980 --> FrServiceEvent
}
@enduml